<svg xmlns="http://www.w3.org/2000/svg" width="2048" height="1024" viewBox="0 0 2048 1024">
  <defs>
    <style>
      .cls-1 {
        fill: #ffffff;
        fill-rule: evenodd;
      }
    </style>
  </defs>
  <path id="BiTE" class="cls-1" d="M313.947,810c119.444,0,193.275-61.075,193.275-158.872,0-72.285-52.957-128.335-127.175-133.747V510.81c57.983-8.891,100.5-59.529,100.5-119.831,0-86.974-64.554-138.772-171.628-138.772H103.663V810H313.947ZM211.124,336.862h68.033c58.756,0,90.84,25.9,90.84,73.831,0,44.84-34.79,71.125-95.478,71.125h-63.4V336.862Zm0,386.937V562.221h68.033c75.378,0,113.646,26.285,113.646,79.243,0,56.436-36.335,82.335-112.872,82.335H211.124ZM788.251,296.66c43.294,0,72.672-26.672,72.672-66.873s-29.378-66.873-72.672-66.873-72.285,26.672-72.285,66.873S744.958,296.66,788.251,296.66ZM970.317,810V725.732H841.6v-342.1h-232.7v84.655H738.773V725.732H601.934V810H970.317Zm356.023,0V346.912h159.64v-94.7H1056.91v94.7h159.65V810h109.78Zm618.1-94.705h-241.6V571.885h227.3V484.138h-227.3V346.912h241.6v-94.7H1592.68V810h351.76V715.3Z"/>
</svg>
